<?xml version="1.0" standalone="no"?>
<!DOCTYPE svg PUBLIC "-//W3C//DTD SVG 20010904//EN"
 "http://www.w3.org/TR/2001/REC-SVG-20010904/DTD/svg10.dtd">
<svg version="1.0" xmlns="http://www.w3.org/2000/svg"
 width="512.000000pt" height="512.000000pt" viewBox="0 0 512.000000 512.000000"
 preserveAspectRatio="xMidYMid meet">

<g transform="translate(0.000000,512.000000) scale(0.100000,-0.100000)"
fill="#FEFEFE" stroke="none">
<path d="M3350 4904 c-86 -13 -145 -30 -220 -66 l-85 -40 -936 -936 c-907
-908 -937 -939 -972 -1012 -47 -97 -67 -184 -67 -290 0 -106 20 -193 67 -290
35 -73 65 -104 967 -1006 l931 -932 85 -41 c194 -94 396 -94 589 1 122 60 214
153 274 279 57 117 71 189 65 322 -6 113 -30 194 -89 294 -25 43 -209 234
-689 715 l-654 658 655 657 c699 703 704 708 750 853 30 91 37 254 15 340 -64
255 -261 440 -516 486 -73 13 -119 15 -170 8z m176 -459 c77 -45 115 -141 93
-232 -11 -46 -48 -84 -813 -850 l-801 -803 802 -802 c786 -788 801 -804 813
-854 14 -61 2 -118 -35 -175 -28 -43 -113 -89 -164 -89 -99 0 -54 -40 -999
903 -543 542 -891 897 -904 922 -28 54 -28 136 0 190 13 24 361 380 899 918
483 482 880 877 883 877 3 0 23 7 45 15 53 20 126 12 181 -20z"/>
</g>
</svg>
