<?xml version="1.0" standalone="no"?>
<!DOCTYPE svg PUBLIC "-//W3C//DTD SVG 20010904//EN"
 "http://www.w3.org/TR/2001/REC-SVG-20010904/DTD/svg10.dtd">
<svg version="1.0" xmlns="http://www.w3.org/2000/svg"
 width="512.000000pt" height="512.000000pt" viewBox="0 0 512.000000 512.000000"
 preserveAspectRatio="xMidYMid meet">

<g transform="translate(0.000000,512.000000) scale(0.100000,-0.100000)"
fill="#FEFEFE" stroke="none">
<path d="M1565 4884 c-112 -24 -226 -86 -310 -169 -59 -58 -82 -90 -118 -166
-57 -117 -71 -189 -65 -322 6 -113 30 -194 89 -294 25 -43 209 -234 689 -716
l654 -657 -655 -658 c-699 -702 -704 -707 -750 -852 -30 -91 -37 -254 -15
-340 22 -90 86 -215 141 -278 168 -189 445 -265 681 -186 141 47 110 19 1105
1013 908 908 937 938 972 1011 47 97 67 184 67 290 0 106 -20 193 -67 290 -35
73 -65 104 -967 1006 l-931 932 -85 41 c-141 69 -283 87 -435 55z m210 -415
c35 -9 161 -131 923 -892 543 -542 891 -897 904 -922 28 -54 28 -136 0 -190
-26 -50 -1753 -1776 -1802 -1801 -22 -11 -57 -18 -95 -19 -140 0 -237 124
-204 262 11 46 48 84 813 851 l801 802 -802 803 c-786 787 -801 803 -813 853
-22 98 23 194 111 238 57 28 101 32 164 15z"/>
</g>
</svg>
